<?xml version="1.0" standalone="no"?>
<!DOCTYPE svg PUBLIC "-//W3C//DTD SVG 20010904//EN"
 "http://www.w3.org/TR/2001/REC-SVG-20010904/DTD/svg10.dtd">
<svg version="1.0" xmlns="http://www.w3.org/2000/svg"
 width="200.000000pt" height="200.000000pt" viewBox="0 0 200.000000 200.000000"
 preserveAspectRatio="xMidYMid meet">

<g transform="translate(0.000000,200.000000) scale(0.100000,-0.100000)"
fill="#000000" stroke="none">
<path d="M485 1359 c-76 -11 -158 -35 -210 -61 -58 -30 -130 -84 -149 -113
l-16 -25 64 0 c63 0 66 1 102 40 75 81 206 123 384 124 120 0 230 -19 324 -56
63 -24 70 -17 14 15 -119 69 -337 101 -513 76z"/>
<path d="M340 1145 c0 -23 4 -25 40 -25 l39 0 3 -137 3 -138 33 -3 32 -3 0
140 0 141 46 0 c41 0 45 2 42 23 -3 21 -7 22 -120 25 l-118 3 0 -26z"/>
<path d="M694 1159 c-46 -13 -91 -69 -99 -122 -17 -113 53 -197 164 -197 65 0
91 15 91 50 0 27 -2 30 -19 20 -11 -5 -40 -10 -66 -10 -35 0 -51 6 -70 25 -48
47 -36 55 80 55 l105 0 0 38 c0 101 -91 170 -186 141z m90 -65 c9 -8 16 -19
16 -24 0 -5 3 -15 6 -24 5 -14 -4 -16 -65 -16 -64 0 -71 2 -71 20 0 49 79 79
114 44z"/>
<path d="M1038 1152 c-30 -16 -38 -17 -38 -6 0 9 -12 14 -35 14 l-35 0 0 -160
0 -160 35 0 35 0 0 98 c0 120 11 147 60 147 l35 0 3 -122 3 -123 40 0 41 0 -4
140 c-3 124 -5 142 -23 160 -30 30 -74 34 -117 12z"/>
<path d="M1335 1163 c-11 -3 -33 -14 -49 -26 -77 -55 -74 -211 6 -270 31 -23
108 -33 158 -20 30 8 35 14 38 41 3 31 2 32 -23 22 -67 -25 -155 4 -155 51 0
17 8 19 100 19 l100 0 0 41 c0 50 -24 102 -55 123 -26 17 -90 27 -120 19z m89
-75 c33 -46 22 -58 -49 -58 -60 0 -65 2 -65 22 0 55 83 81 114 36z"/>
<path d="M1530 1146 c0 -22 5 -25 43 -28 l42 -3 3 -137 3 -138 29 0 29 0 3
138 3 137 43 3 c38 3 43 6 40 25 -3 21 -8 22 -120 25 l-118 3 0 -25z"/>
<path d="M1748 805 c-62 -69 -152 -107 -296 -126 -135 -18 -280 3 -457 66
l-20 7 20 -17 c73 -62 234 -100 415 -99 154 1 251 22 350 75 63 33 140 98 140
117 0 8 -21 12 -60 12 -55 0 -62 -2 -92 -35z"/>
</g>
</svg>
